<?xml version="1.0" encoding="UTF-8"?>
<svg id="Layer_2" data-name="Layer 2" xmlns="http://www.w3.org/2000/svg" viewBox="0 0 303.6 270.18">
  <defs>
    <style>
      .cls-1 {
        fill: #ea1f27;
        stroke-width: 0px;
      }
    </style>
  </defs>
  <g id="Layer_1-2" data-name="Layer 1">
    <path class="cls-1" d="m301.98,253.77l-52.42-85.08-5.92-9.94c-.52-1.11-.97-2.25-1.31-3.4l-25.52-42.25-.26.18-9.56-16.05.17-.1-16.76-27.75v-.02s-11.33-18.74-11.33-18.74c-1.05-1.11-1.9-2.43-2.4-3.97l-8.53-14.12-.02-.04-14.07-23.31c-7.48-12.39-25.52-12.21-32.75.33L10.09,195.01c-3.47,5.79,2.93,12.46,8.86,9.23l2.64-1.51,182.24-89.64L41.73,229.61h0L3.92,254.77c-7.09,4.45-3.94,15.41,4.43,15.41h75.31c5.68,0,10.92-3.03,13.76-7.94l12.25-21.23c12.47-21.6,43.66-21.6,56.13,0l12.26,21.23c2.84,4.92,8.08,7.94,13.76,7.94h100.99c8.42,0,13.58-9.24,9.17-16.41Z"/>
  </g>
</svg>