<?xml version="1.0" encoding="UTF-8"?>
<svg id="Layer_2" data-name="Layer 2" xmlns="http://www.w3.org/2000/svg" viewBox="0 0 1323.45 288.1">
  <defs>
    <style>
      .cls-1 {
        fill: #ea1f27;
        stroke-width: 0px;
      }
    </style>
  </defs>
  <g id="Layer_1-2" data-name="Layer 1">
    <g>
      <g>
        <path class="cls-1" d="m218.97,150.28l-96.13.15c-5.01,0-9.06,4.07-9.06,9.08v26.63c0,5.01,4.06,9.08,9.08,9.08h48.56c5.01,0,9.08,4.06,9.08,9.08v14.99c0,3.1-1.56,6-4.18,7.65-4.94,3.1-11.06,6.14-18.32,9.07-11.23,4.54-22.9,6.85-34.68,6.85-13.48,0-26.4-3.02-38.38-8.96-11.63-5.77-20.25-14.38-26.37-26.34-6.27-12.27-9.45-27.96-9.45-46.64,0-15.14,2.69-29.34,7.97-42.17,3-7.17,7.26-13.85,12.69-19.87,5.2-5.77,12.26-10.55,20.98-14.19,8.85-3.69,19.65-5.57,32.1-5.57,10.18,0,19.51,1.76,27.73,5.24,7.88,3.33,13.94,7.72,18,13.02,4.35,5.69,8.12,13.86,11.2,24.29h0c1.4,4.75,6.34,7.5,11.11,6.19l27.09-7.43c4.78-1.31,7.62-6.21,6.39-11.01h0c-4.22-16.44-10.57-30.08-18.86-40.54-8.49-10.7-20.24-19.11-34.93-25-14.28-5.72-30.39-8.62-47.88-8.62-24.01,0-45.6,5.05-64.19,15.01-18.99,10.17-33.71,25.88-43.75,46.7C4.96,117.27,0,139.4,0,162.76s5.03,45.41,14.94,64.68c10.12,19.67,25.3,34.91,45.11,45.3,19.44,10.19,41.3,15.36,64.97,15.36,17.53,0,34.86-3.19,51.51-9.49,16.49-6.24,32.68-15.64,48.11-27.94,2.16-1.72,3.42-4.34,3.42-7.1v-84.21c0-5.02-4.07-9.09-9.09-9.08Z"/>
        <path class="cls-1" d="m477.99,274.29l-39.45-64.37c-8.11-13.05-16.91-24.11-26.18-32.99-.19-.19-.42-.38-.61-.57,12.9-4.4,23.31-10.87,31-19.4,11.9-13.13,17.91-29.43,17.91-48.41,0-14.54-3.56-28.05-10.64-40.14-7.27-12.4-17.14-21.2-29.39-26.14-11.56-4.67-27.55-6.93-48.87-6.93h-99.42c-5.05,0-9.11,4.06-9.11,9.07v234.62c0,5.01,4.06,9.07,9.11,9.07h29.5c5.01,0,9.07-4.06,9.07-9.07v-85.8c0-5.01,4.06-9.07,9.07-9.07h16.42c8.5,0,12.59.46,14.54.88,3.56.92,7.12,2.6,10.68,4.97,2.45,1.65,6.7,5.36,12.86,13.55,5.43,7.19,12.48,17.79,20.93,31.49l29.7,48.68c1.65,2.72,4.59,4.36,7.77,4.36h37.35c7.12,0,11.48-7.77,7.77-13.81Zm-83.46-139.49c-6.62,2.53-16.3,3.83-28.74,3.83h-45.81c-5.01,0-9.07-4.06-9.07-9.07v-40.56c0-5.01,4.06-9.07,9.07-9.07h53c14.27,0,24.57,2.79,30.54,8.34,5.78,5.32,8.57,11.94,8.57,20.28,0,5.78-1.49,10.98-4.55,15.92-2.91,4.75-7.16,8.11-13.01,10.33Z"/>
      </g>
      <path class="cls-1" d="m1029.74,101.51c-6.66-17.64-16.88-32.41-30.38-43.78-10.56-9.03-23.46-15.35-38.23-18.75-10.41-2.45-24.72-3.6-43.82-3.6h-80.86c-5.01,0-9.07,4.06-9.07,9.07v234.54c0,5.01,4.06,9.07,9.07,9.07h84.73c14.81,0,28.2-1.45,39.8-4.25,11.9-2.91,22.31-7.31,30.92-13.05,8.57-5.78,16.57-13.7,23.69-23.53,7.04-9.8,12.9-22.2,17.3-36.85,4.4-14.54,6.66-31.34,6.66-49.94,0-21.89-3.29-41.71-9.8-58.93Zm-46.53,100.61c-3.6,10.94-8.61,19.67-14.89,25.91-4.13,4.13-9.95,7.46-17.3,9.87-7.77,2.53-19.02,3.83-33.37,3.83h-31.53c-5.01,0-9.07-4.06-9.07-9.07V90.79c0-5.01,4.06-9.11,9.07-9.11h30.73c21.39,0,31.76,2.3,36.66,4.17,9.49,3.67,17.79,11.29,24.68,22.58,7.08,11.6,10.68,28.93,10.68,51.51,0,16.61-1.91,30.77-5.66,42.17Z"/>
      <g>
        <path class="cls-1" d="m681.98,68.54l-10.93-18.09,8.53,14.12c.5,1.54,1.35,2.86,2.4,3.97Z"/>
        <polygon class="cls-1" points="671.05 50.44 671.03 50.41 671.03 50.41 671.05 50.44"/>
      </g>
      <path class="cls-1" d="m803.53,271.68l-52.42-85.08-5.92-9.94c-.52-1.11-.97-2.25-1.31-3.4l-25.52-42.25-.26.18-9.56-16.05.17-.1-16.76-27.75v-.02s-11.33-18.74-11.33-18.74c-1.05-1.11-1.9-2.43-2.4-3.97l-8.53-14.12-.02-.04-14.07-23.31c-7.48-12.39-25.52-12.21-32.75.33l-111.21,185.5c-3.47,5.79,2.93,12.46,8.86,9.23l2.64-1.51,182.24-89.64-162.09,116.51h0l-37.81,25.16c-7.09,4.45-3.94,15.41,4.43,15.41h75.31c5.68,0,10.92-3.03,13.76-7.94l12.25-21.23c12.47-21.6,43.66-21.6,56.13,0l12.26,21.23c2.84,4.92,8.08,7.94,13.76,7.94h100.99c8.42,0,13.58-9.24,9.17-16.41Z"/>
      <g>
        <path class="cls-1" d="m1255.11,241.73h-125.48c-5.01,0-9.08-4.06-9.08-9.08v-42.76c0-5.01,4.06-9.08,9.08-9.08h67.52c5.01,0,9.08-4.06,9.08-9.08v-28.01c0-5.01-4.06-9.08-9.08-9.08h-67.52c-5.01,0-9.08-4.06-9.08-9.08v-34.78c0-5.01,4.06-9.08,9.08-9.08h64.95l4.21-18.35c1.74-7.57-1.48-15.41-8.03-19.59h0c-8.59-5.48-18.56-8.39-28.75-8.39h-82.07c-5.01,0-9.08,4.06-9.08,9.08v234.53c0,5.01,4.06,9.08,9.08,9.08h175.16c5.01,0,9.08-4.06,9.08-9.08v-28.17c0-5.01-4.06-9.08-9.08-9.08Z"/>
        <path class="cls-1" d="m1199.68,35.37l11.68,7.45c7.43,4.74,11.08,13.64,9.1,22.23l-4.18,18.23,47.9-47.9h-64.51Z"/>
      </g>
      <g>
        <path class="cls-1" d="m1292.9,0v4.75h-6.45v19.59h-5.93V4.75h-6.45V0h18.83Z"/>
        <path class="cls-1" d="m1323.45,0v24.34h-5.93v-14.6l-5.44,14.6h-4.79l-5.48-14.63v14.63h-5.93V0h7l6.83,16.85,6.76-16.85h6.97Z"/>
      </g>
    </g>
  </g>
</svg>